<svg xmlns="http://www.w3.org/2000/svg" xmlns:xlink="http://www.w3.org/1999/xlink" version="1.1" x="0px" y="0px" viewBox="0 0 1024 1280" style="enable-background:new 0 0 1024 1024;" xml:space="preserve"><g><g><g><path d="M910,821c-7.1,0-14.3,0-21.4,0c-19.4,0-38.9,0-58.3,0c-28.7,0-57.5,0-86.2,0c-35,0-70.1,0-105.1,0     c-38.3,0-76.7,0-115,0c-38.6,0-77.3,0-115.9,0c-36.1,0-72.2,0-108.3,0c-30.2,0-60.5,0-90.7,0c-21.5,0-43.1,0-64.6,0     c-9.9,0-19.7,0-29.6,0c-2.6,0-5.2-0.1-7.8-0.5c2.7,0.4,5.3,0.7,8,1.1c-4.5-0.7-8.8-1.8-13-3.5c2.4,1,4.8,2,7.2,3     c-2.8-1.2-5.6-2.6-8.2-4.3c-6.1-4,4.4,4.1,0.8,0.8c-1.1-1-2.3-2-3.4-3.1c-1.1-1.1-2.1-2.2-3.1-3.4c-3.4-3.8,4.3,6.8,1.2,1.3     c-1.7-2.9-3.3-5.7-4.7-8.7c1,2.4,2,4.8,3,7.2c-1.7-4.2-2.8-8.5-3.5-13c0.4,2.7,0.7,5.3,1.1,8c-0.8-6.9-0.5-14-0.5-20.9     c0-13.7,0-27.5,0-41.2c0-46,0-91.9,0-137.9c0-55.9,0-111.8,0-167.7c0-48.2,0-96.3,0-144.5c0-22.7-0.2-45.5,0-68.2     c0-2.5,0.2-5,0.5-7.5c-0.4,2.7-0.7,5.3-1.1,8c0.7-4.5,1.8-8.8,3.5-13c-1,2.4-2,4.8-3,7.2c1.2-2.8,2.6-5.6,4.3-8.2     c4-6.1-4.1,4.4-0.8,0.8c1-1.1,2-2.3,3.1-3.4c1.1-1.1,2.2-2.1,3.4-3.1c3.8-3.4-6.8,4.3-1.3,1.2c2.9-1.7,5.7-3.3,8.7-4.7     c-2.4,1-4.8,2-7.2,3c4.2-1.7,8.5-2.8,13-3.5c-2.7,0.4-5.3,0.7-8,1.1c8.8-1.1,18-0.5,26.8-0.5c19.1,0,38.2,0,57.4,0     c28.6,0,57.2,0,85.8,0c35,0,70.1,0,105.1,0c38.5,0,76.9,0,115.4,0c38.8,0,77.7,0,116.5,0c36.3,0,72.6,0,108.9,0     c30.3,0,60.7,0,91,0c21.8,0,43.6,0,65.4,0c9.9,0,19.8,0,29.8,0c2.6,0,5.2,0.1,7.8,0.5c-2.7-0.4-5.3-0.7-8-1.1     c4.5,0.7,8.8,1.8,13,3.5c-2.4-1-4.8-2-7.2-3c2.8,1.2,5.6,2.6,8.2,4.3c6.1,4-4.4-4.1-0.8-0.8c1.1,1,2.3,2,3.4,3.1     c1.1,1.1,2.1,2.2,3.1,3.4c3.4,3.8-4.3-6.8-1.2-1.3c1.7,2.9,3.3,5.7,4.7,8.7c-1-2.4-2-4.8-3-7.2c1.7,4.2,2.8,8.5,3.5,13     c-0.4-2.7-0.7-5.3-1.1-8c0.8,6.9,0.5,14,0.5,20.9c0,13.7,0,27.5,0,41.2c0,46,0,91.9,0,137.9c0,55.9,0,111.8,0,167.7     c0,48.2,0,96.3,0,144.5c0,22.7,0.2,45.5,0,68.2c0,2.5-0.2,5-0.5,7.5c0.4-2.7,0.7-5.3,1.1-8c-0.7,4.5-1.8,8.8-3.5,13     c1-2.4,2-4.8,3-7.2c-1.2,2.8-2.6,5.6-4.3,8.2c-4,6.1,4.1-4.4,0.8-0.8c-1,1.1-2,2.3-3.1,3.4s-2.2,2.1-3.4,3.1     c-3.8,3.4,6.8-4.3,1.3-1.2c-2.9,1.7-5.7,3.3-8.7,4.7c2.4-1,4.8-2,7.2-3c-4.2,1.7-8.5,2.8-13,3.5c2.7-0.4,5.3-0.7,8-1.1     C914.6,820.8,912.3,821,910,821c-15.7,0.2-30.7,13.6-30,30c0.7,16.1,13.2,30.2,30,30c35.9-0.5,66.5-23.5,78.1-57.3     c3.1-9.1,3.9-18.8,3.9-28.3c0-13.6,0-27.3,0-40.9c0-25.2,0-50.3,0-75.5c0-32.5,0-65.1,0-97.6c0-35.4,0-70.9,0-106.3     c0-33.8,0-67.5,0-101.3c0-28,0-56,0-84c0-17.7,0-35.4,0-53.1c0-3.6,0-7.2,0-10.8c-0.1-22.1-8.6-43.8-24.5-59.3     c-15.6-15.2-36.5-23.5-58.2-23.6c-2.7,0-5.4,0-8.1,0c-13.4,0-26.9,0-40.3,0c-22.4,0-44.8,0-67.2,0c-29,0-58,0-87,0     c-33.2,0-66.4,0-99.6,0c-35.4,0-70.8,0-106.2,0c-35.2,0-70.3,0-105.5,0c-32.6,0-65.3,0-97.9,0c-27.7,0-55.4,0-83.1,0     c-20.7,0-41.5,0-62.2,0c-11.3,0-22.7,0-34,0c-2.4,0-4.7-0.1-7.1,0.1c-35.3,1.9-66.3,25.4-76.1,59.7c-3.9,13.5-3.1,27.7-3.1,41.6     c0,20.2,0,40.4,0,60.5c0,29.6,0,59.2,0,88.8c0,34.6,0,69.2,0,103.8c0,35,0,70.1,0,105.1c0,31.4,0,62.8,0,94.2     c0,23.2,0,46.4,0,69.6c0,10.6,0,21.2,0,31.8c0.2,45.5,37.3,82.5,82.8,82.7c8.4,0,16.7,0,25.1,0c18.4,0,36.8,0,55.1,0     c26.1,0,52.2,0,78.3,0c31.4,0,62.8,0,94.2,0c34.7,0,69.4,0,104.1,0c35.6,0,71.1,0,106.7,0c34.1,0,68.3,0,102.4,0     c30.3,0,60.6,0,90.9,0c24.4,0,48.9,0,73.3,0c16.2,0,32.3,0,48.5,0c5.6,0,11.2,0,16.7,0c15.7,0,30.7-13.8,30-30     C939.3,834.7,926.8,821,910,821z"/></g></g><g><g><path d="M620,712c-14.8,0-29.6,0-44.4,0c-35.7,0-71.5,0-107.2,0c-43.1,0-86.2,0-129.3,0c-37.3,0-74.5,0-111.8,0     c-18.2,0-36.4-0.4-54.5,0c-0.2,0-0.5,0-0.7,0c-15.7,0-30.7,13.8-30,30c0.7,16.3,13.2,30,30,30c14.8,0,29.6,0,44.4,0     c35.7,0,71.5,0,107.2,0c43.1,0,86.2,0,129.3,0c37.3,0,74.5,0,111.8,0c18.2,0,36.4,0.4,54.5,0c0.2,0,0.5,0,0.7,0     c15.7,0,30.7-13.8,30-30C649.3,725.7,636.8,712,620,712L620,712z"/></g></g><g><g><path d="M852,712c-37.4,0-74.9,0-112.3,0c-5.2,0-10.5,0-15.7,0c-15.7,0-30.7,13.8-30,30c0.7,16.3,13.2,30,30,30     c37.4,0,74.9,0,112.3,0c5.2,0,10.5,0,15.7,0c15.7,0,30.7-13.8,30-30C881.3,725.7,868.8,712,852,712L852,712z"/></g></g><g><g><path d="M404,664c14.8,0,29.6,0,44.4,0c35.7,0,71.5,0,107.2,0c43.1,0,86.2,0,129.3,0c37.3,0,74.5,0,111.8,0     c18.2,0,36.4,0.4,54.5,0c0.2,0,0.5,0,0.7,0c15.7,0,30.7-13.8,30-30c-0.7-16.3-13.2-30-30-30c-14.8,0-29.6,0-44.4,0     c-35.7,0-71.5,0-107.2,0c-43.1,0-86.2,0-129.3,0c-37.3,0-74.5,0-111.8,0c-18.2,0-36.4-0.4-54.5,0c-0.2,0-0.5,0-0.7,0     c-15.7,0-30.7,13.8-30,30C374.7,650.3,387.2,664,404,664L404,664z"/></g></g><g><g><path d="M172,664c37.4,0,74.9,0,112.3,0c5.2,0,10.5,0,15.7,0c15.7,0,30.7-13.8,30-30c-0.7-16.3-13.2-30-30-30     c-37.4,0-74.9,0-112.3,0c-5.2,0-10.5,0-15.7,0c-15.7,0-30.7,13.8-30,30C142.7,650.3,155.2,664,172,664L172,664z"/></g></g></g><text x="0" y="1039" fill="#000000" font-size="5px" font-weight="bold" font-family="'Helvetica Neue', Helvetica, Arial-Unicode, Arial, Sans-serif">Created by shashank singh</text><text x="0" y="1044" fill="#000000" font-size="5px" font-weight="bold" font-family="'Helvetica Neue', Helvetica, Arial-Unicode, Arial, Sans-serif">from the Noun Project</text></svg>